<svg width="240" height="240" viewBox="0 0 240 240" fill="none" xmlns="http://www.w3.org/2000/svg">
  <defs>
    <radialGradient id="glow" cx="0" cy="0" r="1" gradientUnits="userSpaceOnUse" gradientTransform="translate(120 112) rotate(90) scale(92 92)">
      <stop stop-color="#F8FCFF" stop-opacity="0.92"/>
      <stop offset="0.55" stop-color="#DCEBFB" stop-opacity="0.58"/>
      <stop offset="1" stop-color="#7DB5FF" stop-opacity="0"/>
    </radialGradient>
    <linearGradient id="line" x1="44" y1="28" x2="198" y2="212" gradientUnits="userSpaceOnUse">
      <stop stop-color="#173A66"/>
      <stop offset="1" stop-color="#0B1F3C"/>
    </linearGradient>
    <filter id="softGlow" x="18" y="10" width="204" height="220" filterUnits="userSpaceOnUse" color-interpolation-filters="sRGB">
      <feGaussianBlur stdDeviation="18"/>
    </filter>
  </defs>

  <circle cx="120" cy="112" r="88" fill="url(#glow)"/>
  <g filter="url(#softGlow)">
    <path d="M120 34L182 48V122C182 158 155 191 120 208C85 191 58 158 58 122V48L120 34Z" fill="#FFFFFF" fill-opacity="0.18"/>
  </g>

  <path d="M120 34L182 48V122C182 158 155 191 120 208C85 191 58 158 58 122V48L120 34Z" stroke="url(#line)" stroke-width="3.2"/>
  <path d="M120 48L170 60V122C170 152 148 178 120 192C92 178 70 152 70 122V60L120 48Z" stroke="url(#line)" stroke-width="2.4" opacity="0.72"/>

  <ellipse cx="120" cy="96" rx="54" ry="18" fill="#F7FBFF" fill-opacity="0.92" stroke="url(#line)" stroke-width="2.8"/>
  <ellipse cx="120" cy="96" rx="38" ry="10.5" fill="#DCE9F6" fill-opacity="0.8" stroke="url(#line)" stroke-width="1.8" opacity="0.92"/>

  <path d="M84 126L70 118L68 101L86 108L84 126Z" fill="#F7FBFF" fill-opacity="0.9" stroke="url(#line)" stroke-width="2.4"/>
  <path d="M156 126L170 118L172 101L154 108L156 126Z" fill="#F7FBFF" fill-opacity="0.9" stroke="url(#line)" stroke-width="2.4"/>

  <path d="M120 136C127.456 136 133.5 129.956 133.5 122.5C133.5 115.044 127.456 109 120 109C112.544 109 106.5 115.044 106.5 122.5C106.5 129.956 112.544 136 120 136Z" fill="#F7FBFF" fill-opacity="0.98" stroke="url(#line)" stroke-width="2.8"/>
  <path d="M120 87C101.222 87 86 102.222 86 121C86 142.244 102.29 162.522 120 182C137.71 162.522 154 142.244 154 121C154 102.222 138.778 87 120 87ZM120 134C112.544 134 106.5 127.956 106.5 120.5C106.5 113.044 112.544 107 120 107C127.456 107 133.5 113.044 133.5 120.5C133.5 127.956 127.456 134 120 134Z" fill="#F7FBFF" fill-opacity="0.96" stroke="url(#line)" stroke-width="3"/>
</svg>
